<svg xmlns="http://www.w3.org/2000/svg" xmlns:xlink="http://www.w3.org/1999/xlink" version="1.1" id="Livello_1" x="0px" y="0px" style="enable-background:new 0 0 841.9 595.3;" xml:space="preserve" viewBox="324.3 249.7 193.2 96.3">
<style type="text/css">
	.st0{fill:#ffffff;}
	.st1{fill:#fefffe;}
</style>
<g>
	<path class="st0" d="M377.6,279.8c-1.3-1-2.7-1.9-4.2-2.7c-4.2-2.3-9.3-3.4-15.1-3.4c-6.8,0-12.8,1.6-17.9,4.9   c-5.1,3.2-9.1,7.6-11.9,13.1c-2.8,5.4-4.2,11.5-4.2,18.1c0,6.5,1.4,12.5,4.2,18c2.8,5.5,6.8,9.9,11.9,13.2   c5.1,3.2,11.2,4.9,17.9,4.9c5.8,0,10.8-1.2,15.1-3.4c1.5-0.8,2.9-1.7,4.2-2.7v5.1h16.3v-70h-16.3V279.8z M375.9,320.2   c-1.4,3.1-3.5,5.5-6.2,7.4c-2.7,1.8-6,2.7-10.1,2.7c-4,0-7.3-0.9-10.2-2.7c-2.9-1.9-5-4.3-6.5-7.4c-1.5-3.2-2.3-6.7-2.3-10.5   s0.8-7.4,2.3-10.5s3.6-5.5,6.5-7.4c2.8-1.8,6.2-2.7,10.2-2.7s7.4,0.9,10.1,2.7c2.8,1.9,4.8,4.3,6.2,7.4c1.5,3.2,2.2,6.7,2.2,10.6   C378.1,313.4,377.4,317,375.9,320.2z" fill="#ffffff"/>
	<path class="st1" d="M459.3,279.9c-1.3-1-2.7-1.9-4.2-2.7c-4.2-2.3-9.3-3.4-15.1-3.4c-6.8,0-12.8,1.6-17.9,4.9   c-5.1,3.2-9.1,7.6-11.9,13.1c-2.8,5.4-4.2,11.5-4.2,18.1c0,6.5,1.4,12.5,4.2,18c2.8,5.5,6.8,9.9,11.9,13.2   c5.1,3.2,11.2,4.9,17.9,4.9c5.8,0,10.8-1.2,15.1-3.4c1.5-0.8,2.9-1.7,4.2-2.7v5.1h16.3v-95.3h-16.3V279.9z M457.6,320.3   c-1.4,3.1-3.5,5.5-6.2,7.4c-2.7,1.8-6,2.7-10.1,2.7c-4,0-7.3-0.9-10.2-2.7c-2.9-1.9-5-4.3-6.5-7.4c-1.5-3.2-2.3-6.7-2.3-10.5   s0.8-7.4,2.3-10.5s3.6-5.5,6.5-7.4c2.8-1.8,6.2-2.7,10.2-2.7s7.4,0.9,10.1,2.7c2.8,1.9,4.8,4.3,6.2,7.4c1.5,3.2,2.2,6.7,2.2,10.6   C459.8,313.5,459.1,317.1,457.6,320.3z" fill="#ffffff"/>
	<path class="st0" d="M516.2,327.5c-0.9-1.8-2.2-3.2-3.9-4.2s-3.7-1.6-6-1.6s-4.3,0.5-6,1.6c-1.7,1-3,2.5-3.9,4.2s-1.3,3.7-1.3,5.8   c0,2.1,0.5,4.1,1.3,5.8c0.9,1.8,2.2,3.2,3.9,4.3c1.7,1,3.7,1.6,6,1.6s4.3-0.5,6-1.6c1.7-1,3-2.5,3.9-4.3s1.3-3.7,1.3-5.8   S517.1,329.3,516.2,327.5z" fill="#ffffff"/>
	<path class="st0" d="M516.2,280.9c-0.9-1.8-2.2-3.2-3.9-4.2s-3.7-1.6-6-1.6s-4.3,0.5-6,1.6c-1.7,1-3,2.5-3.9,4.2s-1.3,3.7-1.3,5.8   c0,2.1,0.5,4.1,1.3,5.8c0.9,1.8,2.2,3.2,3.9,4.3c1.7,1,3.7,1.6,6,1.6s4.3-0.5,6-1.6c1.7-1,3-2.5,3.9-4.3s1.3-3.7,1.3-5.8   S517.1,282.6,516.2,280.9z" fill="#ffffff"/>
</g>
</svg>